<?xml version="1.0" encoding="UTF-8"?>
<!DOCTYPE svg PUBLIC "-//W3C//DTD SVG 1.1//EN"
    "http://www.w3.org/Graphics/SVG/1.1/DTD/svg11.dtd">
<svg xmlns="http://www.w3.org/2000/svg" xmlns:xlink="http://www.w3.org/1999/xlink" version="1.1" width="1000.0" height="998.8488746792467" font-size="1" viewBox="0 0 1000 999"><g><g stroke="rgb(0,0,0)" stroke-opacity="1.0" fill="rgb(0,0,0)" fill-opacity="0.0" stroke-width="1.0e-2" stroke-linecap="butt" stroke-linejoin="miter" font-size="1.0em" stroke-miterlimit="10.0"><g transform="matrix(68.79124481262029,0.0,0.0,68.79124481262029,500.0,499.42443733962335)"><g opacity="6.25e-2"><g stroke-width="0.1"><g></g><g></g><g></g><g></g><g></g><path d="M 6.0,-6.0 c 0.0,3.4169027008353527 0.29688359049320123,9.0 -3.0 9.0c -3.3137084989847607,-3.3306690738754696e-16 -2.6862915010152393,-6.0 -6.0 -6.0c -3.2968835904932012,-6.661338147750939e-16 -3.0,5.583097299164647 -3.0 9.0" /><g></g><g></g></g><g><g fill="rgb(255,255,255)" fill-opacity="1.0" stroke-width="2.5e-2" opacity="0.75"><path d="M 3.5,3.0 h 0.0 c 0.0,-0.2761423749153967 -0.22385762508460322,-0.5 -0.4999999999999999 -0.5h 0.0 c -0.2761423749153967,-1.6908843777454448e-17 -0.5,0.2238576250846032 -0.5 0.49999999999999983h 0.0 c -3.3817687554908895e-17,0.2761423749153967 0.22385762508460316,0.5 0.49999999999999983 0.5000000000000001h 0.0 c 0.2761423749153967,5.072653133236334e-17 0.5,-0.22385762508460313 0.5 -0.49999999999999994Z" /></g><g fill="rgb(0,0,0)" fill-opacity="1.0" font-family="STIX"><text transform="matrix(1.0,0.0,0.0,1.0,3.0,3.0)" dominant-baseline="middle" text-anchor="middle" stroke="none">ε</text></g></g><g><g fill="rgb(255,255,255)" fill-opacity="1.0" stroke-width="2.5e-2" opacity="0.75"><path d="M -2.5,-3.0 h 0.0 c 0.0,-0.2761423749153967 -0.22385762508460322,-0.5 -0.4999999999999999 -0.5h 0.0 c -0.2761423749153967,-1.6908843777454448e-17 -0.5,0.2238576250846032 -0.5 0.49999999999999983h 0.0 c -3.3817687554908895e-17,0.2761423749153967 0.22385762508460316,0.5 0.49999999999999983 0.5000000000000001h 0.0 c 0.2761423749153967,5.072653133236334e-17 0.5,-0.22385762508460313 0.5 -0.49999999999999994Z" /></g><g fill="rgb(0,0,0)" fill-opacity="1.0" font-family="STIX"><text transform="matrix(1.0,0.0,0.0,1.0,-3.0,-3.0)" dominant-baseline="middle" text-anchor="middle" stroke="none">η</text></g></g></g></g></g></g></svg>